<mxfile host="app.diagrams.net" modified="2023-05-18T18:22:04.474Z" agent="Mozilla/5.0 (Windows NT 10.0; Win64; x64) AppleWebKit/537.36 (KHTML, like Gecko) Chrome/113.0.0.0 Safari/537.36 Edg/113.0.1774.42" etag="7hTkJd8VethWin_wkLHi" version="21.3.2" type="device">
  <diagram name="Page-1" id="gO0J7Mw4nNqKSEOpUM24">
    <mxGraphModel dx="2229" dy="788" grid="1" gridSize="10" guides="1" tooltips="1" connect="1" arrows="1" fold="1" page="1" pageScale="1" pageWidth="850" pageHeight="1100" math="0" shadow="0">
      <root>
        <mxCell id="0" />
        <mxCell id="1" parent="0" />
        <mxCell id="d4VJKWpUD1U12rWFLEhe-10" style="edgeStyle=orthogonalEdgeStyle;rounded=0;orthogonalLoop=1;jettySize=auto;html=1;" edge="1" parent="1" source="d4VJKWpUD1U12rWFLEhe-2" target="d4VJKWpUD1U12rWFLEhe-3">
          <mxGeometry relative="1" as="geometry" />
        </mxCell>
        <mxCell id="d4VJKWpUD1U12rWFLEhe-20" value="" style="rounded=0;whiteSpace=wrap;html=1;fillColor=#f5f5f5;fontColor=#333333;strokeColor=#666666;" vertex="1" parent="1">
          <mxGeometry x="-220" y="180" width="1240" height="520" as="geometry" />
        </mxCell>
        <mxCell id="d4VJKWpUD1U12rWFLEhe-9" style="edgeStyle=orthogonalEdgeStyle;rounded=0;orthogonalLoop=1;jettySize=auto;html=1;entryX=0;entryY=0.5;entryDx=0;entryDy=0;" edge="1" parent="1" source="d4VJKWpUD1U12rWFLEhe-1" target="d4VJKWpUD1U12rWFLEhe-2">
          <mxGeometry relative="1" as="geometry" />
        </mxCell>
        <mxCell id="d4VJKWpUD1U12rWFLEhe-1" value="&amp;nbsp; &amp;nbsp; Requirement gathering" style="shape=step;perimeter=stepPerimeter;whiteSpace=wrap;html=1;fixedSize=1;fillColor=#0050ef;strokeColor=#001DBC;fontColor=#ffffff;" vertex="1" parent="1">
          <mxGeometry x="-160" y="240" width="160" height="80" as="geometry" />
        </mxCell>
        <mxCell id="d4VJKWpUD1U12rWFLEhe-19" style="edgeStyle=orthogonalEdgeStyle;rounded=0;orthogonalLoop=1;jettySize=auto;html=1;" edge="1" parent="1" source="d4VJKWpUD1U12rWFLEhe-2" target="d4VJKWpUD1U12rWFLEhe-3">
          <mxGeometry relative="1" as="geometry" />
        </mxCell>
        <mxCell id="d4VJKWpUD1U12rWFLEhe-2" value="Planning" style="shape=step;perimeter=stepPerimeter;whiteSpace=wrap;html=1;fixedSize=1;fillColor=#0050ef;strokeColor=#001DBC;fontColor=#ffffff;" vertex="1" parent="1">
          <mxGeometry x="160" y="240" width="160" height="80" as="geometry" />
        </mxCell>
        <mxCell id="d4VJKWpUD1U12rWFLEhe-11" style="edgeStyle=orthogonalEdgeStyle;rounded=0;orthogonalLoop=1;jettySize=auto;html=1;entryX=0;entryY=0.5;entryDx=0;entryDy=0;" edge="1" parent="1" source="d4VJKWpUD1U12rWFLEhe-3" target="d4VJKWpUD1U12rWFLEhe-4">
          <mxGeometry relative="1" as="geometry">
            <Array as="points">
              <mxPoint x="720" y="280" />
              <mxPoint x="720" y="360" />
              <mxPoint x="-80" y="360" />
              <mxPoint x="-80" y="440" />
            </Array>
          </mxGeometry>
        </mxCell>
        <mxCell id="d4VJKWpUD1U12rWFLEhe-3" value="Pseudo code" style="shape=step;perimeter=stepPerimeter;whiteSpace=wrap;html=1;fixedSize=1;fillColor=#0050ef;strokeColor=#001DBC;fontColor=#ffffff;" vertex="1" parent="1">
          <mxGeometry x="480" y="240" width="160" height="80" as="geometry" />
        </mxCell>
        <mxCell id="d4VJKWpUD1U12rWFLEhe-12" style="edgeStyle=orthogonalEdgeStyle;rounded=0;orthogonalLoop=1;jettySize=auto;html=1;entryX=0;entryY=0.5;entryDx=0;entryDy=0;" edge="1" parent="1" source="d4VJKWpUD1U12rWFLEhe-4" target="d4VJKWpUD1U12rWFLEhe-5">
          <mxGeometry relative="1" as="geometry" />
        </mxCell>
        <mxCell id="d4VJKWpUD1U12rWFLEhe-4" value="Development" style="shape=step;perimeter=stepPerimeter;whiteSpace=wrap;html=1;fixedSize=1;fillColor=#0050ef;strokeColor=#001DBC;fontColor=#ffffff;" vertex="1" parent="1">
          <mxGeometry y="400" width="160" height="80" as="geometry" />
        </mxCell>
        <mxCell id="d4VJKWpUD1U12rWFLEhe-13" style="edgeStyle=orthogonalEdgeStyle;rounded=0;orthogonalLoop=1;jettySize=auto;html=1;" edge="1" parent="1" source="d4VJKWpUD1U12rWFLEhe-5" target="d4VJKWpUD1U12rWFLEhe-6">
          <mxGeometry relative="1" as="geometry" />
        </mxCell>
        <mxCell id="d4VJKWpUD1U12rWFLEhe-5" value="Pull request Review&lt;br&gt;&amp;amp; Package" style="shape=step;perimeter=stepPerimeter;whiteSpace=wrap;html=1;fixedSize=1;fillColor=#0050ef;fontColor=#ffffff;strokeColor=#001DBC;" vertex="1" parent="1">
          <mxGeometry x="320" y="400" width="160" height="80" as="geometry" />
        </mxCell>
        <mxCell id="d4VJKWpUD1U12rWFLEhe-15" style="edgeStyle=orthogonalEdgeStyle;rounded=0;orthogonalLoop=1;jettySize=auto;html=1;entryX=0;entryY=0.5;entryDx=0;entryDy=0;" edge="1" parent="1" source="d4VJKWpUD1U12rWFLEhe-6" target="d4VJKWpUD1U12rWFLEhe-7">
          <mxGeometry relative="1" as="geometry">
            <mxPoint x="400" y="600" as="targetPoint" />
            <Array as="points">
              <mxPoint x="880" y="440" />
              <mxPoint x="880" y="520" />
              <mxPoint x="400" y="520" />
              <mxPoint x="400" y="599" />
            </Array>
          </mxGeometry>
        </mxCell>
        <mxCell id="d4VJKWpUD1U12rWFLEhe-6" value="Dev deployment" style="shape=step;perimeter=stepPerimeter;whiteSpace=wrap;html=1;fixedSize=1;fillColor=#0050ef;fontColor=#ffffff;strokeColor=#001DBC;" vertex="1" parent="1">
          <mxGeometry x="640" y="400" width="160" height="80" as="geometry" />
        </mxCell>
        <mxCell id="d4VJKWpUD1U12rWFLEhe-16" style="edgeStyle=orthogonalEdgeStyle;rounded=0;orthogonalLoop=1;jettySize=auto;html=1;" edge="1" parent="1" source="d4VJKWpUD1U12rWFLEhe-7" target="d4VJKWpUD1U12rWFLEhe-8">
          <mxGeometry relative="1" as="geometry" />
        </mxCell>
        <mxCell id="d4VJKWpUD1U12rWFLEhe-7" value="Dev deployment" style="shape=step;perimeter=stepPerimeter;whiteSpace=wrap;html=1;fixedSize=1;fillColor=#0050ef;fontColor=#ffffff;strokeColor=#001DBC;" vertex="1" parent="1">
          <mxGeometry x="480" y="560" width="160" height="80" as="geometry" />
        </mxCell>
        <mxCell id="d4VJKWpUD1U12rWFLEhe-8" value="Handover to project" style="shape=step;perimeter=stepPerimeter;whiteSpace=wrap;html=1;fixedSize=1;fillColor=#0050ef;fontColor=#ffffff;strokeColor=#001DBC;" vertex="1" parent="1">
          <mxGeometry x="800" y="560" width="160" height="80" as="geometry" />
        </mxCell>
      </root>
    </mxGraphModel>
  </diagram>
</mxfile>
